<svg width="61" height="57" viewBox="0 0 61 57" fill="none" xmlns="http://www.w3.org/2000/svg">
<path d="M58.6108 37.4982C54.1149 51.2561 39.4699 58.8024 25.909 54.3709L19.5552 52.2945L35.8292 2.49435L42.1831 4.57069C55.7439 9.00218 63.1067 23.7403 58.6108 37.4982Z" fill="#1A1A1C" stroke="#1A1A1C"/>
<circle cx="27.223" cy="27.2228" r="26.3431" transform="rotate(18.0967 27.223 27.2228)" fill="#EBEDF0" stroke="#1A1A1C"/>
<path d="M28.2276 41.1429L16.2359 38.1822L19.4646 25.1048L22.6934 12.0273L32.0792 14.3446C35.6904 15.2362 37.8951 18.8865 37.0036 22.4977C36.112 26.109 32.4617 28.3137 28.8505 27.4221L31.4563 28.0654C35.0676 28.957 37.2723 32.6073 36.3807 36.2185C35.4891 39.8298 31.8388 42.0345 28.2276 41.1429Z" fill="white"/>
<path d="M19.4646 25.1048L22.6934 12.0273L32.0792 14.3446C35.6904 15.2362 37.8951 18.8865 37.0036 22.4977V22.4977C36.112 26.109 32.4617 28.3137 28.8505 27.4221L19.4646 25.1048ZM19.4646 25.1048L16.2359 38.1822L28.2276 41.1429C31.8388 42.0345 35.4891 39.8298 36.3807 36.2185V36.2185C37.2723 32.6073 35.0676 28.957 31.4563 28.0654L19.4646 25.1048Z" stroke="#1A1A1C" stroke-linecap="round" stroke-linejoin="round"/>
<path d="M22.9831 12.099L19.9912 11.3604" stroke="#1A1A1C" stroke-linecap="round" stroke-linejoin="round"/>
<path d="M16.5256 38.2538L13.5337 37.5151" stroke="#1A1A1C" stroke-linecap="round" stroke-linejoin="round"/>
<path d="M20.1928 39.1593L19.335 42.6338" stroke="#1A1A1C" stroke-linecap="round" stroke-linejoin="round"/>
<path d="M27.4846 9.62648L26.708 12.772" stroke="#1A1A1C" stroke-linecap="round" stroke-linejoin="round"/>
<path d="M24.2465 40.1603L23.3887 43.6348" stroke="#1A1A1C" stroke-linecap="round" stroke-linejoin="round"/>
<path d="M31.538 10.6271L30.6372 13.9692" stroke="#1A1A1C" stroke-linecap="round" stroke-linejoin="round"/>
</svg>
