<svg width="164" height="164" viewBox="0 0 164 164" fill="none" xmlns="http://www.w3.org/2000/svg">
<path d="M137.345 39.6046C144.182 46.3687 145.131 57.9699 140.902 71.4276C136.682 84.8575 127.343 99.9875 113.865 113.611C100.388 127.234 85.3595 136.736 71.9757 141.1C58.5644 145.473 46.9536 144.65 40.1163 137.886L26.3106 124.228L123.539 25.9467L137.345 39.6046Z" fill="#1A1A1C" stroke="#1A1A1C"/>
<path d="M123.206 25.5729C130.042 32.3367 130.984 43.9453 126.743 57.4156C122.511 70.8579 113.154 86.005 99.6583 99.6471C86.1622 113.289 71.1167 122.808 57.7207 127.185C44.2968 131.57 32.6787 130.754 25.8418 123.99C19.0048 117.226 18.0635 105.618 22.3044 92.1475C26.5365 78.7052 35.8929 63.5581 49.389 49.916C62.8851 36.2738 77.9306 26.7549 91.3266 22.3784C104.75 17.9929 116.369 18.8091 123.206 25.5729Z" fill="#EBEDF0" stroke="#1A1A1C"/>
<path d="M78.2573 65.6145L85.8916 91.3215L45.2092 107.687L51.4737 64.2858L78.2573 65.6145Z" fill="white"/>
<path d="M51.4737 64.2858L57.4092 92.1554M51.4737 64.2858L78.2573 65.6145L85.8916 91.3215M51.4737 64.2858L45.2092 107.687M57.4092 92.1554L85.8916 91.3215M57.4092 92.1554L45.2092 107.687M85.8916 91.3215L45.2092 107.687" stroke="#1A1A1C"/>
<path d="M58.1625 55.7702L101.113 36.5178L64.9761 82.522L58.1625 55.7702Z" fill="white" stroke="#1A1A1C" stroke-linejoin="round"/>
<path d="M92.5805 82.8059L101.113 36.5178L64.9761 82.522L92.5805 82.8059Z" fill="white" stroke="#1A1A1C" stroke-linejoin="round"/>
</svg>
