<svg width="154" height="113" viewBox="0 0 154 113" fill="none" xmlns="http://www.w3.org/2000/svg">
<path d="M8.77955 70.8865C7.75111 68.8525 8.2697 66.0143 10.3852 62.4936C12.4854 58.9985 16.0811 54.9685 20.9134 50.6594C30.5722 42.0463 45.0836 32.3956 62.1588 23.7618C79.2339 15.128 95.6083 9.16169 108.271 6.48841C114.605 5.15099 119.982 4.64404 124.042 5.02445C128.132 5.40765 130.725 6.67244 131.753 8.70641L144.188 33.2985L21.2142 95.4785L8.77955 70.8865Z" fill="#1A1A1C" stroke="#1A1A1C"/>
<path d="M21.2798 95.6079C20.2514 93.574 20.77 90.7357 22.8855 87.215C24.9856 83.7199 28.5814 79.6899 33.4136 75.3808C43.0725 66.7677 57.5839 57.117 74.659 48.4832C91.7342 39.8494 108.109 33.8831 120.771 31.2098C127.106 29.8724 132.483 29.3655 136.543 29.7459C140.632 30.1291 143.225 31.3939 144.254 33.4278C145.282 35.4618 144.764 38.3001 142.648 41.8207C140.548 45.3158 136.952 49.3459 132.12 53.6549C122.461 62.268 107.95 71.9187 90.8745 80.5526C73.7993 89.1864 57.4249 95.1526 44.7627 97.8259C38.4278 99.1633 33.0507 99.6703 28.991 99.2899C24.9015 98.9067 22.3083 97.6419 21.2798 95.6079Z" fill="#EBEDF0" stroke="#1A1A1C"/>
</svg>
