<svg width="25" height="18" viewBox="0 0 25 18" fill="none" xmlns="http://www.w3.org/2000/svg">
<path d="M0.18945 2.08567C-0.134006 1.63801 -0.0333238 1.01291 0.414331 0.68945C0.861985 0.365993 1.48709 0.466677 1.81055 0.91433L0.18945 2.08567ZM6.67475 9.35369L7.4853 8.76802V8.76802L6.67475 9.35369ZM8.25445 9.40709L7.4853 8.76802V8.76802L8.25445 9.40709ZM11.9357 4.9765L11.1666 4.33743V4.33743L11.9357 4.9765ZM13.5088 5.02088L14.3128 4.42619V4.42619L13.5088 5.02088ZM22.989 16.648C22.9073 17.1942 22.3982 17.5707 21.852 17.489L12.9511 16.1572C12.4049 16.0755 12.0284 15.5665 12.1101 15.0203C12.1918 14.4741 12.7008 14.0975 13.2471 14.1793L21.159 15.363L22.3428 7.4511C22.4245 6.9049 22.9335 6.52836 23.4797 6.61009C24.0259 6.69181 24.4025 7.20085 24.3207 7.74705L22.989 16.648ZM1.81055 0.91433L7.4853 8.76802L5.8642 9.93936L0.18945 2.08567L1.81055 0.91433ZM7.4853 8.76802L11.1666 4.33743L12.7049 5.61557L9.02359 10.0462L7.4853 8.76802ZM14.3128 4.42619L22.804 15.9053L21.196 17.0947L12.7049 5.61557L14.3128 4.42619ZM11.1666 4.33743C11.9958 3.33942 13.5412 3.38302 14.3128 4.42619L12.7049 5.61557H12.7049L11.1666 4.33743ZM7.4853 8.76802H7.4853L9.02359 10.0462C8.18847 11.0513 6.62954 10.9986 5.8642 9.93936L7.4853 8.76802Z" fill="#1A1A1C"/>
</svg>
